<?xml version="1.0" encoding="UTF-8"?>
<!DOCTYPE svg PUBLIC "-//W3C//DTD SVG 1.1//EN" "http://www.w3.org/Graphics/SVG/1.1/DTD/svg11.dtd">


<svg width="100%" height="100%"
     viewBox="0 0 100 100"
     xmlns="http://www.w3.org/2000/svg" 
     xmlns:xlink="http://www.w3.org/1999/xlink">
    
    <title>mecha size</title>
    
    <defs>
        <!-- Internal stylesheet -->
        <style type="text/css"><![CDATA[
            g {
                stroke: none
                stroke-width: 1;
            }

            .main-color {
                fill: pink;
            }
            
            .main-color:hover {
                fill: yellow;
            }
        ]]></style>
        
        <g id="mecha-size-left">
            <rect x="45" y="5" width="4" height="60"/>
            <polygon points="45 10,57 10,67 20, 67 30, 57 50, 45 50" />
            <rect rx="3" ry="3" x="67" y="18" width="10" height="30"/>
            <!--<polygon points="67 22,77 22,86 40, 86 60, 80 60, 80 40, 72 28, 67 28" />-->
            <!--<rect x="10" y="20" width="70" height="20"/>-->
            <path d="M45 53 60 53 80 80 80 90 65 90 65 80 60 67 45 67 Z" />
        </g>
        <g id="mecha-size">
            <use xlink:href="#mecha-size-left" x="0" y="0" />
            <use id="testtesttesttest" xlink:href="#mecha-size-left" transform="translate(91 0) scale(-1 1)" />
        </g>
    </defs>
                
    <filter id="drop-shadow" filterUnits="objectBoundingBox">
        <feGaussianBlur in="SourceAlpha" stdDeviation="2" result="blur"/>
        <feOffset in="blur" dx="4" dy="4" result="offsetBlur"/>
        <feMerge>
            <feMergeNode in="offsetBlur"/>
            <feMergeNode in="SourceGraphic"/>
        </feMerge>
    </filter>
  
    <!--<rect x="0%" y="0%" width="100%" height="100%" style="stroke: none; fill: whitesmoke;"/>-->
    <!--<use id="el-mech-size" class="main-color" xlink:href="#mecha-size" x="5" y="5" style="filter: url(#drop-shadow)" />-->
    <g id="img-layer"></g>
</svg>
